<svg id="Capa_1" enable-background="new 0 0 512 512" height="512" viewBox="0 0 512 512" width="512" xmlns="http://www.w3.org/2000/svg"><g><path d="m433.131 56.002h-354.262c-8.284 0-15 6.716-15 15v425.998c0 8.284 6.716 15 15 15h354.263c8.284 0 15-6.716 15-15v-425.998c-.001-8.284-6.716-15-15.001-15z" fill="#fff5f5"/><path d="m433.131 56.002h-177.131v455.998h177.131c8.284 0 15-6.716 15-15v-425.998c0-8.284-6.715-15-15-15z" fill="#f2e8e4"/><path d="m433.131 56.002h-35v405.998h-284.262v-405.998h-35c-8.284 0-15 6.716-15 15v425.998c0 8.284 6.716 15 15 15h354.263c8.284 0 15-6.716 15-15v-425.998c-.001-8.284-6.716-15-15.001-15z" fill="#b35f49"/><path d="m433.131 56.002h-35v405.998h-142.131v50h177.131c8.284 0 15-6.716 15-15v-425.998c0-8.284-6.715-15-15-15z" fill="#99503d"/><g fill="#444"><path d="m341.131 187.5h-50.131c-8.284 0-15-6.716-15-15s6.716-15 15-15h50.131c8.284 0 15 6.716 15 15s-6.715 15-15 15z"/><path d="m341.131 286.5h-50.131c-8.284 0-15-6.716-15-15s6.716-15 15-15h50.131c8.284 0 15 6.716 15 15s-6.715 15-15 15z"/><path d="m341.131 385.5h-50.131c-8.284 0-15-6.716-15-15s6.716-15 15-15h50.131c8.284 0 15 6.716 15 15s-6.715 15-15 15z"/></g><path d="m163.119 189.899v-34.798c0-8.202 6.649-14.851 14.851-14.851h34.798c8.202 0 14.851 6.649 14.851 14.851v34.798c0 8.202-6.649 14.851-14.851 14.851h-34.798c-8.202 0-14.851-6.649-14.851-14.851z" fill="#6d6d6d"/><path d="m163.119 288.899v-34.798c0-8.202 6.649-14.851 14.851-14.851h34.798c8.202 0 14.851 6.649 14.851 14.851v34.798c0 8.202-6.649 14.851-14.851 14.851h-34.798c-8.202 0-14.851-6.649-14.851-14.851z" fill="#6d6d6d"/><path d="m163.119 387.899v-34.798c0-8.202 6.649-14.851 14.851-14.851h34.798c8.202 0 14.851 6.649 14.851 14.851v34.798c0 8.202-6.649 14.851-14.851 14.851h-34.798c-8.202 0-14.851-6.649-14.851-14.851z" fill="#6d6d6d"/><path d="m325.131 28.505h-24.943c-7.735-16.894-24.918-28.505-44.188-28.505s-36.453 11.611-44.188 28.505h-24.943c-8.284 0-15 6.716-15 15v39.495c0 8.284 6.716 15 15 15h138.263c8.284 0 15-6.716 15-15v-39.495c-.001-8.284-6.716-15-15.001-15z" fill="#fdbf00"/><path d="m325.131 28.505h-24.943c-7.735-16.894-24.918-28.505-44.188-28.505v98h69.131c8.284 0 15-6.716 15-15v-39.495c0-8.284-6.715-15-15-15z" fill="#ff8700"/></g></svg>